<svg id="Text_curve" data-name="Text curve" xmlns="http://www.w3.org/2000/svg" width="600" height="600" viewBox="0 0 600 600">
  <defs>
    <style>
      .cls-1 {
        fill: #e9eef2;
      }

      .cls-2, .cls-3, .cls-4 {
        fill: #212529;
      }

      .cls-2, .cls-4 {
        fill-rule: evenodd;
      }

      .cls-3, .cls-4 {
        stroke: #NaNNaNNaN;
        stroke-width: 1px;
      }
    </style>
  </defs>
  <rect id="Прямоугольник_1" data-name="Прямоугольник 1" class="cls-1" x="-220" y="420" width="1020" height="91"/>
  <rect id="Прямоугольник_1_копия" data-name="Прямоугольник 1 копия" class="cls-1" x="-240" y="551" width="1020" height="26"/>
  <path id="Almanac" class="cls-2" d="M127.306,511.062l10.3-31.1H137.8l10.3,31.1h-20.8ZM156.7,536.551h11.377L142.2,465.359h-9.033l-25.879,71.192h11.426l5.469-15.918h27Zm21.1-12.305q0,6.69,3.808,9.522a14.609,14.609,0,0,0,9.18,2.783h4.541v-9.619h-3.515q-3.81,0-3.809-3.467V465.359H177.8v58.887Zm29.267,12.305h10.205V506.375q0-5.322,2.93-8.105a9.624,9.624,0,0,1,7.178-2.832,9.787,9.787,0,0,1,7.226,2.832q2.784,2.783,2.783,8.105v30.176h10.205V506.375q0-5.322,2.881-8.105a9.788,9.788,0,0,1,7.227-2.832,9.627,9.627,0,0,1,7.178,2.832q2.783,2.783,2.783,8.105v30.176h10.2V502.859q-0.2-8.69-5.371-13.183a17.388,17.388,0,0,0-11.524-4.444q-10.01-.1-15.967,6.641a25.367,25.367,0,0,0-5.81-4.834,18.934,18.934,0,0,0-8.5-1.807,16.417,16.417,0,0,0-13.233,6.006h-0.195v-5.371H207.064v50.684Zm113.57,0H330.84V501.932q-0.1-9.278-5.811-13.086-5.713-3.711-15.283-3.614-11.329-.194-17.139,7.422l8.008,6.1a7.337,7.337,0,0,1,3.613-3.125,18.505,18.505,0,0,1,6.006-.781q10.5-.195,10.4,6.494v5.322H306.523q-8.106.1-12.305,4.394a14.363,14.363,0,0,0-4.2,10.6,14.045,14.045,0,0,0,4.834,10.987q4.59,4.393,13.086,4.492a20.908,20.908,0,0,0,8.106-1.27,8.472,8.472,0,0,0,4.394-3.808h0.195v4.492Zm0-17.822q0,5.712-2.392,7.324-2.637,1.611-9.033,1.513-5.079,0-7.276-2a5.419,5.419,0,0,1-2.3-4.394q-0.1-5.907,8.789-6.1h12.207v3.663Zm25.609,17.822h10.2V506.375q0-5.322,2.881-8.105a9.788,9.788,0,0,1,7.227-2.832,9.623,9.623,0,0,1,7.177,2.832q2.832,2.783,2.832,8.105v30.176h10.206V502.859q-0.246-8.69-5.42-13.183a17.39,17.39,0,0,0-11.524-4.444,16.361,16.361,0,0,0-13.183,6.006h-0.2v-5.371h-10.2v50.684Zm83.042,0h10.206V501.932q-0.1-9.278-5.811-13.086-5.714-3.711-15.283-3.614-11.329-.194-17.139,7.422l8.008,6.1a7.337,7.337,0,0,1,3.613-3.125,18.505,18.505,0,0,1,6.006-.781q10.5-.195,10.4,6.494v5.322H415.174q-8.106.1-12.3,4.394a14.363,14.363,0,0,0-4.2,10.6,14.045,14.045,0,0,0,4.834,10.987q4.59,4.393,13.086,4.492a20.911,20.911,0,0,0,8.106-1.27,8.472,8.472,0,0,0,4.394-3.808h0.2v4.492Zm0-17.822q0,5.712-2.392,7.324-2.637,1.611-9.033,1.513-5.079,0-7.276-2a5.419,5.419,0,0,1-2.3-4.394q-0.1-5.907,8.789-6.1h12.207v3.663Zm56.034,2.929a12.463,12.463,0,0,1-10.3,5.274q-12.99.245-13.184-15.674,0.195-16.015,13.184-15.82a12.768,12.768,0,0,1,10.3,5.322l7.52-6.69a25.9,25.9,0,0,0-7.813-6.4,23.017,23.017,0,0,0-10.4-2.442,22.484,22.484,0,0,0-15.772,6.006q-7.031,6.2-7.226,20.02,0.195,13.673,7.226,19.775a22.857,22.857,0,0,0,15.772,6.1,21.879,21.879,0,0,0,10.4-2.588,27.3,27.3,0,0,0,7.813-6.2h0Z"/>
  <path id="Frontend" class="cls-2" d="M110.054,447.551h10.791v-30.42h29.59v-9.57h-29.59v-21h34.668V376.359H110.054v71.192Zm54.143,0h10.2V417.033q0.1-5.567,3.223-8.056a9.578,9.578,0,0,1,6.69-2.539A10.686,10.686,0,0,1,191,408.977l7.422-8.838a17.019,17.019,0,0,0-23.828,2.1h-0.2v-5.371H164.2v50.684Zm40.955-13.184a19.471,19.471,0,0,0,4.2,7.276,19.238,19.238,0,0,0,5.859,4.3,19.887,19.887,0,0,0,9.522,2.2,20.333,20.333,0,0,0,9.716-2.2,11.093,11.093,0,0,0,3.272-2.1,15.813,15.813,0,0,0,2.392-2.2,17.394,17.394,0,0,0,4.3-7.276,46.357,46.357,0,0,0,1.221-12.207,47.545,47.545,0,0,0-1.221-12.305,15.967,15.967,0,0,0-4.3-7.08,18.211,18.211,0,0,0-5.664-4.541,22.144,22.144,0,0,0-9.716-2,21.652,21.652,0,0,0-9.522,2,19.174,19.174,0,0,0-5.859,4.541,17.742,17.742,0,0,0-4.2,7.08q-1.318,4.3-1.319,12.305t1.319,12.207h0Zm29.785-4.492a10.084,10.084,0,0,1-2,4.395,9.593,9.593,0,0,1-3.321,2.587,10.568,10.568,0,0,1-4.882,1.075,10.738,10.738,0,0,1-4.786-1.075,12.387,12.387,0,0,1-3.417-2.587,12.792,12.792,0,0,1-1.905-4.395,36.408,36.408,0,0,1-.586-7.715,37.479,37.479,0,0,1,.586-7.812,11.815,11.815,0,0,1,1.905-4.2,9.043,9.043,0,0,1,3.417-2.685,11.17,11.17,0,0,1,4.786-1.025,10.994,10.994,0,0,1,4.882,1.025,7.47,7.47,0,0,1,3.321,2.685,9.357,9.357,0,0,1,2,4.2,45.6,45.6,0,0,1,.488,7.91,42.75,42.75,0,0,1-.488,7.617h0Zm24.086,17.676h10.206V417.375q0-5.322,2.88-8.105a9.788,9.788,0,0,1,7.227-2.832,9.626,9.626,0,0,1,7.178,2.832q2.831,2.783,2.832,8.105v30.176h10.2V413.859q-0.246-8.69-5.42-13.183a17.388,17.388,0,0,0-11.524-4.444,16.362,16.362,0,0,0-13.183,6.006h-0.195v-5.371H259.023v50.684Zm56.517-50.684h-5.078v7.764h5.078v30.42q0,6.006,3.516,9.179a12.081,12.081,0,0,0,8.789,3.321h5.322v-9.619h-3.808q-3.712.1-3.614-3.76V404.631h7.422v-7.764h-7.422V381.438h-10.2v15.429Zm68.8,29.2v-8.4q-0.1-10.01-6.2-15.723a21.094,21.094,0,0,0-14.7-5.713,21.768,21.768,0,0,0-7.324,1.319,18.194,18.194,0,0,0-6.788,4.3,21.763,21.763,0,0,0-4.882,8.007,35.3,35.3,0,0,0-1.9,12.5q0,7.813,2.2,12.7a20.11,20.11,0,0,0,5.224,7.91,17.9,17.9,0,0,0,3.565,2.295,19,19,0,0,0,3.711,1.709,26.423,26.423,0,0,0,7.812,1.172q10.5,0.1,18.262-8.2l-7.373-6.3a15.213,15.213,0,0,1-11.084,4.931,11.718,11.718,0,0,1-8.594-3.222q-3.516-3.174-3.516-9.278h31.592Zm-31.592-8.4q0.294-5.907,3.174-8.936a11.256,11.256,0,0,1,15.039,0q2.978,3.028,3.174,8.936H352.752Zm44.836,29.883h10.2V417.375q0-5.322,2.88-8.105a9.788,9.788,0,0,1,7.227-2.832,9.626,9.626,0,0,1,7.178,2.832q2.831,2.783,2.832,8.105v30.176h10.2V413.859q-0.245-8.69-5.42-13.183a17.388,17.388,0,0,0-11.523-4.444,16.363,16.363,0,0,0-13.184,6.006h-0.195v-5.371h-10.2v50.684Zm85.4,0H493.2V376.359H482.991v25.879a29.353,29.353,0,0,0-5.908-4.394,16.341,16.341,0,0,0-7.227-1.612q-9.278.246-13.574,6.641a12.623,12.623,0,0,0-2.783,6.3,101.155,101.155,0,0,0,0,25.879,12.816,12.816,0,0,0,2.783,6.494A17.051,17.051,0,0,0,462,446.232a16.793,16.793,0,0,0,7.861,1.9,17.266,17.266,0,0,0,13.135-5.908h0v5.322Zm-4.3-39.7a7.186,7.186,0,0,1,2.881,3.71,18.7,18.7,0,0,1,1.318,4.981q0.1,2.686.1,5.615,0,2.686-.1,5.469a18.8,18.8,0,0,1-1.318,5.127,7.184,7.184,0,0,1-2.881,3.711,9.838,9.838,0,0,1-5.713,1.465,9.389,9.389,0,0,1-5.518-1.368,8.428,8.428,0,0,1-3.076-3.613,18.828,18.828,0,0,1-1.22-5.176,52.486,52.486,0,0,1-.293-5.615,58.184,58.184,0,0,1,.293-5.908,18.6,18.6,0,0,1,1.22-4.981,7.754,7.754,0,0,1,3.076-3.613,10.282,10.282,0,0,1,5.518-1.22,10.093,10.093,0,0,1,5.713,1.416h0Z"/>
  <g id="row1">
    <rect id="Прямоугольник_2_копия_2" data-name="Прямоугольник 2 копия 2" class="cls-3" x="114.281" y="74.156" width="75.969" height="75.969"/>
    <rect id="Прямоугольник_2_копия_3" data-name="Прямоугольник 2 копия 3" class="cls-3" x="114.281" y="264.094" width="75.969" height="76"/>
    <rect id="Прямоугольник_2_копия_4" data-name="Прямоугольник 2 копия 4" class="cls-3" x="114.281" y="169.094" width="75.969" height="76"/>
  </g>
  <g id="row2">
    <path id="Прямоугольник_2_копия_2-2" data-name="Прямоугольник 2 копия 2" class="cls-4" d="M258.11,58.939L311.838,5.211l53.729,53.728-53.729,53.728Z"/>
    <rect id="Прямоугольник_2_копия_3-2" data-name="Прямоугольник 2 копия 3" class="cls-3" x="209.25" y="264.094" width="75.969" height="76"/>
    <rect id="Прямоугольник_2_копия_4-2" data-name="Прямоугольник 2 копия 4" class="cls-3" x="209.25" y="169.094" width="75.969" height="76"/>
  </g>
  <g id="row3">
    <path id="Прямоугольник_2_копия_2-3" data-name="Прямоугольник 2 копия 2" class="cls-4" d="M379.994,128.615l65.8,37.991-37.991,65.8L342,194.418Z"/>
    <rect id="Прямоугольник_2_копия_3-3" data-name="Прямоугольник 2 копия 3" class="cls-3" x="304.25" y="264.094" width="75.969" height="76"/>
    <rect id="Прямоугольник_2_копия_4-3" data-name="Прямоугольник 2 копия 4" class="cls-3" x="419.75" y="13.375" width="75.969" height="75.969"/>
  </g>
</svg>
